# xmcd
#
# Track frame offsets:
#	150
#	20062
#	29709
#	46659
#	62520
#	81481
#	92327
#	105935
#	118237
#	133180
#	147879
#	169974
#
# Disc length: 2498 seconds
#
# Revision: 1
# Processed by: cddbd v1.5.2PL0 Copyright (c) Steve Scherf et al.
# Submitted via: audiograbber 1.83.01
#
DISCID=a209c00c
DTITLE=The Dark Horses - Everyone's Alone
DYEAR=2012
DGENRE=Alternative Rock
TTITLE0=Uneasy Feeling
TTITLE1=Halo
TTITLE2=Dark Ride (Dawn)
TTITLE3=Everyone's Alone
TTITLE4=Open Ended
TTITLE5=Stay (Where You Are)
TTITLE6=Dark Ride (Dusk)
TTITLE7=You Alredy Know
TTITLE8=Filthy Beauty
TTITLE9=A Real Job
TTITLE10=Who Do You Think You Are? (You Can't)
TTITLE11=Sleep (Deep And Long)
EXTD=
EXTT0=
EXTT1=
EXTT2=
EXTT3=
EXTT4=
EXTT5=
EXTT6=
EXTT7=
EXTT8=
EXTT9=
EXTT10=
EXTT11=
PLAYORDER=
